# xmcd
#
# Track frame offsets:
#	150
#	4845
#	22620
#	39835
#	57480
#	75772
#	91790
#	110407
#	131962
#	142697
#	159612
#	174567
#	195867
#
# Disc length: 2895 seconds
#
# Revision: 1
# Processed by: cddbd v1.5.1PL0 Copyright (c) Steve Scherf et al.
# Submitted via: CDex 1.50Beta5
#
DISCID=8b0b4d0d
DTITLE=New Cinema 蜥蜴 - Rail
DYEAR=1999
DGENRE=Rock
TTITLE0=@
TTITLE1=Rail
TTITLE2=CaNDY LiFe
TTITLE3=SO CUTE!
TTITLE4=eighteen
TTITLE5=Drive me evil
TTITLE6=Ghost Mind
TTITLE7=Believe myself
TTITLE8=Silence
TTITLE9=Talkin’ Talkin’ Talkin’
TTITLE10=Smashing the good! Smashing the bad!
TTITLE11=Flash Back
TTITLE12=車輪
EXTD=
EXTT0=
EXTT1=
EXTT2=
EXTT3=
EXTT4=
EXTT5=
EXTT6=
EXTT7=
EXTT8=
EXTT9=
EXTT10=
EXTT11=
EXTT12=
PLAYORDER=
